PathFileType	4	(X/Y/Z)	/Users/itak/Documents/Research/Walk-IL/dataset/trc/00553_00009.trc
DataRate	CameraRate	NumFrames	NumMarkers	Units	OrigDataRate	OrigDataStartFrame	OrigNumFrames
100.000000	100.000000	4	53	mm	100.000000	303	485
Frame#	Time	RPSI			LPSI			L3			STRN			T10			C7			CLAV			RBAK			LBAK			LSHO			LUPA			LAEL			LAOL			LWTS			LWPS			LFRA			LIFD			LHPS			LHTS			RSHO			RUPA			RAEL			RAOL			RWTS			RWPS			RFRA			RIFD			RHTS			RHPS			RBHD			LFHD			RFHD			LBHD			LHIP			RHIP			RASI			LASI			LKNE			LTHI			LANK			LTIP			LTOE			LMT1			LMT5			LHEE			RKNE			RTHI			RANK			RTIP			RTOE			RMT1			RMT5			RHEE			
		X1	Y1	Z1	X2	Y2	Z2	X3	Y3	Z3	X4	Y4	Z4	X5	Y5	Z5	X6	Y6	Z6	X7	Y7	Z7	X8	Y8	Z8	X9	Y9	Z9	X10	Y10	Z10	X11	Y11	Z11	X12	Y12	Z12	X13	Y13	Z13	X14	Y14	Z14	X15	Y15	Z15	X16	Y16	Z16	X17	Y17	Z17	X18	Y18	Z18	X19	Y19	Z19	X20	Y20	Z20	X21	Y21	Z21	X22	Y22	Z22	X23	Y23	Z23	X24	Y24	Z24	X25	Y25	Z25	X26	Y26	Z26	X27	Y27	Z27	X28	Y28	Z28	X29	Y29	Z29	X30	Y30	Z30	X31	Y31	Z31	X32	Y32	Z32	X33	Y33	Z33	X34	Y34	Z34	X35	Y35	Z35	X36	Y36	Z36	X37	Y37	Z37	X38	Y38	Z38	X39	Y39	Z39	X40	Y40	Z40	X41	Y41	Z41	X42	Y42	Z42	X43	Y43	Z43	X44	Y44	Z44	X45	Y45	Z45	X46	Y46	Z46	X47	Y47	Z47	X48	Y48	Z48	X49	Y49	Z49	X50	Y50	Z50	X51	Y51	Z51	X52	Y52	Z52	X53	Y53	Z53	

304	3.03	280.0953063964844	981.64697265625	322.2393798828125	283.0387573242188	992.9629516601562	190.2829437255859	285.3430480957031	1087.987182617188	251.0153503417969	528.4470825195312	1268.737548828125	253.9340057373047	283.9151306152344	1213.010986328125	247.6052551269531	343.0264282226562	1485.166625976562	263.0143127441406	514.17724609375	1380.410034179688	257.4410705566406	265.7138977050781	1363.009887695312	344.5094604492188	309.32373046875	1435.379760742188	168.4404754638672	412.0171203613281	1459.64111328125	94.96710968017578	422.8294677734375	1340.1865234375	8.391487121582031	502.831298828125	1136.526733398438	-23.97025299072266	413.3432006835938	1095.556274414062	4.825486660003662	674.31640625	952.9686279296875	49.87037658691406	662.6116333007812	919.3049926757812	-29.86118507385254	558.37939453125	1067.52197265625	-23.99796295166016	749.1714477539062	799.652099609375	49.29247283935547	694.4808349609375	868.6066284179688	-17.75766181945801	726.7208862304688	892.3818969726562	37.43094253540039	396.9028015136719	1445.616821289062	418.9933166503906	371.9499816894531	1381.416259765625	483.7578430175781	346.9865417480469	1096.4423828125	533.203125	292.9187622070312	1080.459716796875	503.053955078125	482.4559326171875	876.356201171875	504.9182739257812	433.8400573730469	855.6035766601562	567.6502075195312	355.8501586914062	1040.839965820312	541.8867797851562	494.8244323730469	702.3629760742188	510.839111328125	509.3898315429688	784.7191162109375	520.8267211914062	450.5242004394531	781.2381591796875	565.3926391601562	445.1142272949219	1662.112670898438	337.0726623535156	594.3749389648438	1672.696411132812	192.1190490722656	585.28515625	1668.489624023438	336.4089050292969	461.9675598144531	1664.07421875	172.7001342773438	407.4069213867188	919.3480224609375	55.36074447631836	410.9751892089844	917.0272216796875	440.121826171875	493.0458374023438	951.1890869140625	380.9916076660156	490.420166015625	943.9854125976562	106.6835861206055	366.5178833007812	480.0040893554688	139.7787933349609	394.7392272949219	641.6817016601562	96.43947601318359	190.2122192382812	36.02285003662109	179.0551300048828	251.9469757080078	248.2505645751953	152.5713653564453	401.7281188964844	41.20444869995117	233.4169464111328	329.7186889648438	45.45900726318359	268.8692626953125	311.3287963867188	35.30158233642578	160.4811859130859	122.4305267333984	48.10242462158203	232.3472900390625	597.4969482421875	513.6680297851562	416.4486389160156	483.9685668945312	779.9988403320312	450.3832397460938	698.9955444335938	39.88065719604492	393.9449157714844	651.05517578125	380.4885559082031	407.9405822753906	896.2932739257812	128.9815979003906	378.1872253417969	842.5821533203125	109.7507095336914	330.1879272460938	819.0203857421875	79.0194091796875	426.8887634277344	651.420166015625	26.62806510925293	332.2172241210938	
305	3.04	290.2586059570312	979.7400512695312	323.3795166015625	292.9172668457031	991.2589721679688	191.4161224365234	295.6601257324219	1085.87353515625	251.9230804443359	538.0279541015625	1266.943603515625	254.4489288330078	293.5052185058594	1210.996215820312	248.4929962158203	352.3697204589844	1483.260009765625	263.7237548828125	523.6280517578125	1378.638305664062	258.0262451171875	275.2821960449219	1360.962890625	345.2363891601562	318.5968627929688	1433.484252929688	169.1723785400391	421.3010864257812	1457.744262695312	95.59211730957031	432.1749877929688	1338.214233398438	9.130234718322754	512.6809692382812	1134.746459960938	-23.04635620117188	423.318359375	1093.513793945312	5.741715908050537	685.0046997070312	952.3424072265625	51.43256378173828	673.5215454101562	918.3145141601562	-28.17948913574219	568.5269165039062	1066.026245117188	-22.84591102600098	760.720703125	799.4795532226562	51.5285530090332	705.6806030273438	867.854736328125	-15.8379602432251	737.739501953125	892.0435180664062	39.26278305053711	406.398681640625	1443.68017578125	419.6897583007812	381.4959411621094	1379.442138671875	484.4100952148438	356.4927368164062	1094.362426757812	533.638916015625	302.429931640625	1078.540161132812	503.3808898925781	491.3409118652344	873.89697265625	505.4036254882812	442.6806335449219	853.2745361328125	568.094970703125	365.1983642578125	1038.766723632812	542.328857421875	503.2022399902344	699.888916015625	511.2829284667969	518.0040283203125	782.1956787109375	521.2367553710938	459.0876770019531	778.8825073242188	565.8531494140625	454.2101745605469	1660.335205078125	337.6218872070312	603.48095703125	1671.085327148438	192.6708984375	594.423583984375	1666.904296875	336.9760131835938	471.0967712402344	1662.327514648438	173.2255859375	416.5592041015625	917.8517456054688	55.92388916015625	421.4239807128906	914.8143920898438	440.5262756347656	503.4976196289062	949.183837890625	381.3944396972656	499.6497802734375	941.861083984375	106.7119674682617	371.1959533691406	479.1701049804688	140.0560150146484	401.2435302734375	640.4754028320312	96.67899322509766	190.2029571533203	36.52389526367188	179.4667816162109	254.0088806152344	248.6374816894531	152.5641174316406	401.8831176757812	41.11089706420898	233.28515625	329.8597717285156	45.54137420654297	268.7815856933594	311.3439636230469	35.32782363891602	160.5033569335938	122.7203826904297	49.68160247802734	232.5554656982422	607.1853637695312	511.5278015136719	415.1871032714844	493.8678894042969	777.5745849609375	451.0990600585938	719.7518920898438	39.88346481323242	392.2344970703125	663.2385864257812	379.7801818847656	406.6063232421875	914.9328002929688	134.0158386230469	376.3874206542969	861.3314208984375	113.9852142333984	328.4839477539062	839.1065063476562	81.5064697265625	424.9587707519531	672.0088500976562	25.99534034729004	330.7312316894531	
306	3.05	300.5605773925781	977.8277587890625	324.6144714355469	302.8778991699219	989.5285034179688	192.6440887451172	306.0579833984375	1083.761474609375	252.8989868164062	547.6820068359375	1265.137939453125	255.0077972412109	303.1694946289062	1208.973876953125	249.4511108398438	361.7705993652344	1481.33984375	264.4898986816406	533.140625	1376.851196289062	258.6600036621094	284.9151611328125	1358.885620117188	346.01025390625	327.9447937011719	1431.573120117188	169.9587554931641	430.64306640625	1455.830932617188	96.26142883300781	441.5495910644531	1336.2001953125	9.932873725891113	522.4864501953125	1132.8857421875	-22.06100845336914	433.2278442382812	1091.452270507812	6.707159519195557	695.4561157226562	951.4278564453125	52.99119186401367	684.176025390625	917.0892333984375	-26.51755905151367	578.569580078125	1064.386962890625	-21.65343475341797	771.8947143554688	798.960205078125	53.68750762939453	716.5577392578125	866.8269653320312	-13.95829486846924	748.4888305664062	891.3886108398438	41.03008270263672	415.95556640625	1441.7099609375	420.4431762695312	391.1048278808594	1377.441650390625	485.1211547851562	366.0862121582031	1092.238403320312	534.1498413085938	311.9897155761719	1076.56982421875	503.8036804199219	500.2420043945312	871.36083984375	505.9912719726562	451.5267333984375	850.894287109375	568.6591796875	374.6204528808594	1036.662841796875	542.8551025390625	511.5884399414062	697.3533935546875	511.8930053710938	526.6382446289062	779.6099853515625	521.7787475585938	467.654052734375	776.4741821289062	566.4367065429688	463.3604431152344	1658.547729492188	338.2366943359375	612.63134765625	1669.480224609375	193.2866516113281	603.6233520507812	1665.322021484375	337.5921325683594	480.2729797363281	1660.592651367188	173.8001098632812	425.7537841796875	916.3171997070312	56.56960678100586	432.0881042480469	912.71826171875	441.0428161621094	514.0855102539062	947.2520141601562	381.810791015625	508.8229064941406	939.6013793945312	106.5948028564453	376.3987731933594	478.2536926269531	140.3536376953125	408.1089782714844	639.2308349609375	97.00574493408203	190.2459411621094	37.13424301147461	179.8334503173828	256.3895263671875	249.0664825439453	152.5982971191406	402.0574645996094	41.00478363037109	233.1610717773438	330.0489807128906	45.64800643920898	268.6544189453125	311.3603210449219	35.34539413452148	160.5275573730469	123.0020904541016	51.34894943237305	232.6752166748047	617.460693359375	509.6062622070312	413.79833984375	504.2823181152344	775.3605346679688	451.7435302734375	737.5023803710938	39.65767669677734	390.1289367675781	675.189697265625	378.8619384765625	405.0360107421875	931.1456298828125	137.4751892089844	374.2379455566406	877.6056518554688	116.8148498535156	326.4037475585938	856.3554077148438	83.06208801269531	422.6815795898438	689.6478881835938	25.25018882751465	328.7850036621094	
307	3.06	311.0167236328125	975.9427490234375	325.9278564453125	312.919921875	987.801513671875	193.9698486328125	316.5094604492188	1081.685546875	253.9393615722656	557.4154663085938	1263.355102539062	255.6144561767578	312.9251403808594	1206.967529296875	250.4691619873047	371.2254333496094	1479.43115234375	265.3125610351562	542.714599609375	1375.082153320312	259.3446044921875	294.6090087890625	1356.80078125	346.825927734375	337.3685913085938	1429.661010742188	170.803955078125	440.0353698730469	1453.928955078125	96.97827911376953	450.9598083496094	1334.175415039062	10.79721927642822	532.2500610351562	1130.974731445312	-21.00762176513672	443.0757446289062	1089.399780273438	7.743193626403809	705.6636352539062	950.2306518554688	54.53792572021484	694.5592651367188	915.6381225585938	-24.88488006591797	588.5030517578125	1062.62646484375	-20.41841316223145	782.6820068359375	798.0930786132812	55.74274063110352	727.1043701171875	865.5298461914062	-12.1428337097168	758.9549560546875	890.4133911132812	42.72029876708984	425.5646667480469	1439.73974609375	421.2557067871094	400.7666015625	1375.436767578125	485.8887939453125	375.7738342285156	1090.099365234375	534.7277221679688	321.6085205078125	1074.569580078125	504.311279296875	509.1631774902344	868.77197265625	506.6752624511719	460.3817443847656	848.4943237304688	569.342529296875	384.125	1034.560302734375	543.460693359375	519.9637451171875	694.7769775390625	512.6700439453125	535.2817993164062	776.9776611328125	522.4530029296875	476.2152099609375	774.0390014648438	567.143310546875	472.5735168457031	1656.7841796875	338.9193725585938	621.8311157226562	1667.90478515625	193.9672546386719	612.8878173828125	1663.765625	338.2587585449219	489.49658203125	1658.892456054688	174.4322509765625	435.0089721679688	914.7598266601562	57.30582809448242	442.9564819335938	910.7674560546875	441.6643981933594	524.810791015625	945.4161376953125	382.2486877441406	518.029052734375	937.2830200195312	106.4288482666016	382.1489868164062	477.2503051757812	140.6658172607422	415.3532409667969	637.9549560546875	97.41750335693359	190.3531951904297	37.88161087036133	180.1410675048828	259.1163635253906	249.5496215820312	152.6629028320312	402.2525024414062	40.88907241821289	233.0427856445312	330.2940368652344	45.78542709350586	268.4801940917969	311.38037109375	35.35244750976562	160.5501098632812	123.2767333984375	53.13522720336914	232.6952209472656	628.3369140625	507.9065246582031	412.3365173339844	515.23486328125	773.3919067382812	452.2923278808594	752.202880859375	39.09226608276367	387.6405334472656	686.9488525390625	377.6997680664062	403.2397766113281	944.98388671875	139.0767059326172	371.6339111328125	891.4303588867188	118.0031280517578	323.8568420410156	870.781982421875	83.48849487304688	420.0047912597656	704.2476196289062	24.33267211914062	326.4196472167969	
